<?xml version="1.0" standalone="no"?><!DOCTYPE svg PUBLIC "-//W3C//DTD SVG 1.1//EN" "http://www.w3.org/Graphics/SVG/1.1/DTD/svg11.dtd"><svg t="1762663692255" class="icon" viewBox="0 0 1024 1024" version="1.1" xmlns="http://www.w3.org/2000/svg" p-id="5922" xmlns:xlink="http://www.w3.org/1999/xlink" width="200" height="200"><path d="M695.789886 68.263733l259.918751 259.920798 0 367.582843L695.789886 955.687148 328.204997 955.687148 68.284199 695.767374 68.284199 328.183508l259.920798-259.919774L695.789886 68.263733M724.065883 0 299.930023 0 0.021489 299.907511l0 424.133813 299.908534 299.908534 424.13586 0 299.906487-299.908534L1023.972371 299.907511 724.065883 0 724.065883 0z" fill="#ffffff" p-id="5923"></path><path d="M204.812689 674.602332 349.370039 819.160705 493.927389 674.602332 457.788308 638.46325 349.370039 746.881518 277.090852 674.602332 493.927389 457.765795 548.137035 511.975441 584.276117 475.836359 493.927389 385.487631Z" fill="#ffffff" p-id="5924"></path><path d="M819.183218 349.347526 674.624844 204.790176 530.067494 349.347526 566.206576 385.487631 674.624844 277.069363 746.904031 349.347526 530.067494 566.184063 475.857848 511.975441 439.718767 548.114522 530.067494 638.46325Z" fill="#ffffff" p-id="5925"></path></svg>