<svg t="1762606179398" class="icon" viewBox="0 0 1024 1024" version="1.1" xmlns="http://www.w3.org/2000/svg" p-id="5926" width="200" height="200"><path d="M695.2192 102.5536c-73.1392 0-141.8752 28.416-193.4592 80.0256l-190.976 190.9248 44.7488 44.7232 190.9248-190.8992a208.9728 208.9728 0 0 1 148.736-61.5424 208.896 208.896 0 0 1 148.736 61.4912c81.9968 82.0224 81.9968 215.4496 0 297.472L524.0832 844.5952 204.288 524.8c-81.9968-82.0224-81.9968-215.4752 0-297.472a207.8976 207.8976 0 0 1 147.9424-61.3632c10.0864 0 33.4336 2.3808 33.4336 2.3808V102.7328h-32.7168c-28.928 0-57.344 4.4032-84.5056 13.184A270.336 270.336 0 0 0 159.488 182.5792c-106.6752 106.6496-106.6752 280.2688 0 386.9184l364.5952 365.4912 364.544-365.4912c106.7008-106.7008 106.6752-280.2688 0-386.944a271.6928 271.6928 0 0 0-193.4336-80z" fill="#FFFFFF" p-id="5927"></path></svg>